#N canvas 0 25 1307 783 10;
#X obj 6 257 inlet~;
#X obj 406 726 dac~;
#X obj 736 257 inlet~;
#X obj 736 459 *~;
#X obj 6 449 *~;
#X obj 6 764 outlet~;
#X obj 736 764 outlet~;
#X msg 109 285 0;
#X msg 846 287 0;
#X obj 109 263 loadbang;
#X obj 846 265 loadbang;
#X obj 1031 49 f \$0;
#X obj 16 306 tabwrite \$0-left;
#X obj 747 309 tabwrite \$0-right;
#X obj 1031 27 loadbang;
#X msg 1041 141 \; \$1-right yticks 0 10 2;
#X msg 1031 181 \; \$1-left yticks 0 10 2;
#X obj 104 102 cnv 10 20 18 empty empty empty 20 12 0 14 -159808 -66577
0;
#X obj 172 102 cnv 10 20 18 empty empty empty 20 12 0 14 -159808 -66577
0;
#X obj 16 284 env~ 4096;
#X obj 747 287 env~ 4096;
#X obj 736 683 clip~ -1 1;
#X obj 107 78 hsl 83 20 0.01 1 1 0 \$0-volume_s \$0-volume_r empty
-2 -8 0 10 -262144 -1 -262144 6800 1;
#X obj 128 133 cnv 10 40 13 empty empty empty 20 12 0 14 -159808 -66577
0;
#X msg 1051 101 \; \$1-output_level yticks 0 100 1;
#X obj 6 673 clip~ -1 1;
#X msg 121 477 0;
#X obj 121 455 loadbang;
#X obj 14 477 env~ 4096;
#X obj 14 499 tabwrite \$0-output_level;
#X obj 891 460 loadbang;
#X obj 750 482 env~ 4096;
#X obj 750 504 tabwrite \$0-output_level;
#X msg 891 482 1;
#N canvas 0 22 450 278 (subpatch) 0;
#X array \$0-left 1 float 2;
#X array \$0-l_p 1 float 2;
#X coords 0 120 1 0 20 110 2 0 0;
#X restore 104 102 graph;
#N canvas 539 308 450 278 (subpatch) 0;
#X array \$0-right 1 float 2;
#X array \$0-r_p 1 float 2;
#X coords 0 120 1 0 20 110 2 0 0;
#X restore 172 102 graph;
#N canvas 0 23 450 278 (subpatch) 0;
#X array \$0-output_level 2 float 2;
#X array \$0-out_peak 2 float 2;
#X coords 0 120 2 0 40 80 2 0 0;
#X restore 128 132 graph;
#X obj 747 351 fexpr~ if($x1 > $y1[-1] || $x2 == 0 \, $x1 \, $y1[-1])
;
#X obj 424 177 tgl 15 1 empty empty empty 17 7 0 10 -262144 -1 -1 1
1;
#X obj 747 394 tabwrite~ \$0-r_p;
#X obj 424 197 metro 1000;
#X obj 747 373 rmstodb~;
#X msg 454 249 0;
#X msg 494 249 1;
#X obj 750 541 fexpr~ if($x1 > $y1[-1] || $x2 == 0 \, $x1 \, $y1[-1])
;
#X obj 750 563 rmstodb~;
#X obj 750 594 tabwrite~ \$0-out_peak;
#X msg 676 546 start 1;
#X obj 14 337 fexpr~ if($x1 > $y1[-1] || $x2 == 0 \, $x1 \, $y1[-1])
;
#X obj 14 359 rmstodb~;
#X obj 15 541 fexpr~ if($x1 > $y1[-1] || $x2 == 0 \, $x1 \, $y1[-1])
;
#X obj 15 563 rmstodb~;
#X obj 15 594 tabwrite~ \$0-out_peak;
#X obj 494 228 del 3;
#X obj 454 228 del 2;
#X obj 676 524 del 1;
#X obj 14 380 tabwrite~ \$0-l_p;
#X obj 411 431 line~;
#X msg 411 409 \$1 10;
#X obj 411 388 expr if($f1 == 0.01 \, 0 \, $f1);
#X text 589 73 GUI wrapper for the dac~ object with a logarithmic attenuator
\, hard limiter set to a range of [-1 \, 1] post attenuation \, and
level trackers pre and post attenuation;
#X obj 411 367 r \$0-volume_s;
#X text 590 147 https://github.com/evie-writes-code;
#X text 589 125 original creator:;
#X text 590 169 junior web developer for hire \, Montreal area and
remote \, audio/visual code are my passion projects. my pronoun.is/she
avatar from twitter.com/viiolaceus;
#X text 590 217 adapted lomz;
#X text 101 61 L;
#X text 182 61 R;
#X text 137 60 Vol;
#X obj 101 51 cnv 5 15 5 empty empty empty 20 12 0 14 -260097 -66577
0;
#X obj 180 51 cnv 5 15 5 empty empty empty 20 12 0 14 -260097 -66577
0;
#X obj 101 217 cnv 5 15 5 empty empty empty 20 12 0 14 -260097 -66577
0;
#X obj 180 217 cnv 5 15 5 empty empty empty 20 12 0 14 -260097 -66577
0;
#X connect 0 0 4 0;
#X connect 0 0 19 0;
#X connect 0 0 48 0;
#X connect 2 0 3 0;
#X connect 2 0 20 0;
#X connect 2 0 37 0;
#X connect 3 0 21 0;
#X connect 3 0 31 0;
#X connect 3 0 44 0;
#X connect 4 0 25 0;
#X connect 4 0 28 0;
#X connect 4 0 50 0;
#X connect 7 0 12 1;
#X connect 8 0 13 1;
#X connect 9 0 7 0;
#X connect 10 0 8 0;
#X connect 11 0 16 0;
#X connect 11 0 15 0;
#X connect 11 0 24 0;
#X connect 14 0 11 0;
#X connect 19 0 12 0;
#X connect 20 0 13 0;
#X connect 21 0 6 0;
#X connect 21 0 1 1;
#X connect 25 0 5 0;
#X connect 25 0 1 0;
#X connect 26 0 29 1;
#X connect 27 0 26 0;
#X connect 28 0 29 0;
#X connect 30 0 33 0;
#X connect 31 0 32 0;
#X connect 33 0 32 1;
#X connect 37 0 41 0;
#X connect 38 0 40 0;
#X connect 40 0 53 0;
#X connect 40 0 54 0;
#X connect 40 0 55 0;
#X connect 40 0 52 0;
#X connect 40 0 39 0;
#X connect 40 0 56 0;
#X connect 41 0 39 0;
#X connect 42 0 37 1;
#X connect 42 0 44 1;
#X connect 42 0 48 1;
#X connect 42 0 50 1;
#X connect 43 0 37 1;
#X connect 43 0 44 1;
#X connect 43 0 48 1;
#X connect 43 0 50 1;
#X connect 44 0 45 0;
#X connect 45 0 46 0;
#X connect 47 0 46 0;
#X connect 48 0 49 0;
#X connect 49 0 56 0;
#X connect 50 0 51 0;
#X connect 51 0 52 0;
#X connect 53 0 43 0;
#X connect 54 0 42 0;
#X connect 55 0 47 0;
#X connect 57 0 3 1;
#X connect 57 0 4 1;
#X connect 58 0 57 0;
#X connect 59 0 58 0;
#X connect 61 0 59 0;
#X coords 0 -1 1 1 96 173 2 100 50;
