#N canvas 369 34 306 231 10;
#X obj 101 51 cnv 5 15 5 empty empty empty 20 12 0 14 -260097 -66577
0;
#X obj 130 51 cnv 5 15 5 empty empty empty 20 12 0 14 -260097 -66577
0;
#X obj 101 187 cnv 5 15 5 empty empty empty 20 12 0 14 -260097 -66577
0;
#X obj 130 187 cnv 5 15 5 empty empty empty 20 12 0 14 -260097 -66577
0;
#X obj 20 27 inlet~;
#X obj 216 27 inlet~;
#X text 18 12 audio in;
#X text 212 12 audio in;
#X obj 103 9 env~;
#X obj 103 29 - 100;
#X obj 105 63 vu 15 120 empty empty -1 -8 0 10 -66577 -262144 1 0;
#X obj 155 8 env~;
#X obj 155 28 - 100;
#X obj 125 63 vu 15 120 empty empty -1 -8 0 10 -66577 -262144 1 0;
#X obj 185 96 dac~ 1 2;
#X obj 21 164 outlet~;
#X text 18 185 audio out;
#X obj 194 160 outlet~;
#X text 191 181 audio out;
#X connect 4 0 8 0;
#X connect 4 0 14 0;
#X connect 4 0 15 0;
#X connect 5 0 11 0;
#X connect 5 0 14 1;
#X connect 5 0 17 0;
#X connect 8 0 9 0;
#X connect 9 0 10 0;
#X connect 11 0 12 0;
#X connect 12 0 13 0;
#X coords 0 -1 1 1 45 143 2 100 50;
