#N canvas 343 130 786 416 12;
#X obj 304 126 tgl 15 0 empty empty empty 17 7 0 10 -262144 -1 -1 0
1;
#X obj 82 129 t f b;
#X obj 82 153 metro;
#X floatatom 359 123 5 0 0 0 - - -;
#X msg 131 104 15000 \$1;
#X obj 131 128 /;
#X obj 82 227 i;
#X msg 94 187 0;
#X obj 116 227 + 1;
#X obj 82 361 s \$0-clock;
#X floatatom 82 305 5 0 0 0 - - -;
#X obj 82 281 % 4;
#X floatatom 145 257 5 0 0 0 - - -;
#X msg 145 280;
#X msg 99 255 4;
#X obj 82 328 sel 0;
#X obj 381 104 bng 15 250 50 0 empty empty empty 17 7 0 10 -262144
-1 -1;
#X obj 356 31 loadbang;
#X msg 356 55 120;
#X text 295 265 mod from:;
#X text 295 286 https://www.youtube.com/watch?v=YCoFZ-MEHwI;
#X text 332 123 bpm;
#X obj 301 150 cnv 5 15 5 empty empty empty 20 12 0 14 -159808 -66577
0;
#X text 303 104 Clock;
#X obj 378 197 outlet;
#X text 380 219 tempo;
#X connect 0 0 1 0;
#X connect 1 0 2 0;
#X connect 1 1 7 0;
#X connect 2 0 6 0;
#X connect 3 0 4 0;
#X connect 4 0 5 0;
#X connect 5 0 2 1;
#X connect 6 0 8 0;
#X connect 6 0 11 0;
#X connect 7 0 6 1;
#X connect 8 0 6 1;
#X connect 10 0 15 0;
#X connect 11 0 10 0;
#X connect 12 0 13 0;
#X connect 14 0 11 1;
#X connect 15 0 16 0;
#X connect 15 0 9 0;
#X connect 16 0 24 0;
#X connect 17 0 18 0;
#X connect 18 0 3 0;
#X coords 0 -1 1 1 100 55 2 300 100;
