#N canvas 222 217 392 251 10;
#X msg 264 159 \; pd dsp 1;
#X msg 193 159 \; pd dsp 0;
#X obj 193 101 loadbang;
#X obj 264 133 del 100;
#X text 103 103 DSP;
#X obj 193 53 sel 0 1;
#X obj 132 103 tgl 15 0 empty empty empty 17 7 0 10 -159808 -1 -1 0
1;
#X connect 2 0 1 0;
#X connect 2 0 3 0;
#X connect 3 0 0 0;
#X connect 5 0 1 0;
#X connect 5 1 0 0;
#X connect 6 0 5 0;
#X coords 0 -1 1 1 50 21 2 100 100;
