#N canvas 213 271 559 537 10;
#X obj 104 422 outlet~;
#X obj 272 33 inlet;
#X obj 271 319 line~;
#X msg 271 299 0 356.195;
#X obj 271 341 *~;
#X obj 271 363 lop~ 200;
#X msg 359 304 1;
#X obj 107 123 hsl 128 8 1.27 5000 1 1 dmp10 dmp10r empty 134 4 0 8
-228856 -159808 -1 8659 1;
#X obj 272 201 +;
#X msg 272 178 0;
#X obj 104 401 *~;
#X obj 272 224 *;
#X msg 271 251 set 0 \$1;
#X obj 329 277 t b b;
#X obj 272 155 t f f;
#X obj 104 300 clip~ -1 1;
#X obj 104 232 bp~ 8906 1.437;
#X obj 104 254 bp~ 8906 1.437;
#N canvas 1 79 744 501 squarebattery 0;
#X obj 346 142 *~ 0.7;
#X obj 105 124 *~ 0.9;
#X obj 105 79 * 210;
#X obj 345 94 * 540;
#X obj 462 104 * 550;
#X obj 569 103 * 800;
#X obj 269 92 * 380;
#X obj 187 91 * 320;
#X obj 105 404 outlet~;
#X obj 105 11 inlet;
#X text 151 13 tuning;
#N canvas 1 79 438 462 square 0;
#X obj 132 215 -~ 0.5;
#X obj 42 197 wrap~;
#X obj 42 220 -~ 0.5;
#X obj 42 175 -~ 0.5;
#X obj 42 289 -~;
#X obj 42 317 outlet~;
#X obj 42 94 phasor~;
#X obj 42 64 inlet;
#X connect 0 0 4 1;
#X connect 1 0 2 0;
#X connect 2 0 4 0;
#X connect 3 0 1 0;
#X connect 4 0 5 0;
#X connect 6 0 3 0;
#X connect 6 0 0 0;
#X connect 7 0 6 0;
#X restore 345 114 pd square;
#N canvas 0 50 438 462 square 0;
#X obj 132 215 -~ 0.5;
#X obj 42 197 wrap~;
#X obj 42 220 -~ 0.5;
#X obj 42 175 -~ 0.5;
#X obj 42 289 -~;
#X obj 42 317 outlet~;
#X obj 42 94 phasor~;
#X obj 42 64 inlet;
#X connect 0 0 4 1;
#X connect 1 0 2 0;
#X connect 2 0 4 0;
#X connect 3 0 1 0;
#X connect 4 0 5 0;
#X connect 6 0 3 0;
#X connect 6 0 0 0;
#X connect 7 0 6 0;
#X restore 462 128 pd square;
#N canvas 0 50 438 462 square 0;
#X obj 132 215 -~ 0.5;
#X obj 42 197 wrap~;
#X obj 42 220 -~ 0.5;
#X obj 42 175 -~ 0.5;
#X obj 42 289 -~;
#X obj 42 317 outlet~;
#X obj 42 94 phasor~;
#X obj 42 64 inlet;
#X connect 0 0 4 1;
#X connect 1 0 2 0;
#X connect 2 0 4 0;
#X connect 3 0 1 0;
#X connect 4 0 5 0;
#X connect 6 0 3 0;
#X connect 6 0 0 0;
#X connect 7 0 6 0;
#X restore 569 128 pd square;
#N canvas 0 50 438 462 square 0;
#X obj 132 215 -~ 0.5;
#X obj 42 197 wrap~;
#X obj 42 220 -~ 0.5;
#X obj 42 175 -~ 0.5;
#X obj 42 289 -~;
#X obj 42 317 outlet~;
#X obj 42 94 phasor~;
#X obj 42 64 inlet;
#X connect 0 0 4 1;
#X connect 1 0 2 0;
#X connect 2 0 4 0;
#X connect 3 0 1 0;
#X connect 4 0 5 0;
#X connect 6 0 3 0;
#X connect 6 0 0 0;
#X connect 7 0 6 0;
#X restore 269 115 pd square;
#N canvas 0 50 438 462 square 0;
#X obj 132 215 -~ 0.5;
#X obj 42 197 wrap~;
#X obj 42 220 -~ 0.5;
#X obj 42 175 -~ 0.5;
#X obj 42 289 -~;
#X obj 42 317 outlet~;
#X obj 42 94 phasor~;
#X obj 42 64 inlet;
#X connect 0 0 4 1;
#X connect 1 0 2 0;
#X connect 2 0 4 0;
#X connect 3 0 1 0;
#X connect 4 0 5 0;
#X connect 6 0 3 0;
#X connect 6 0 0 0;
#X connect 7 0 6 0;
#X restore 187 119 pd square;
#N canvas 0 50 438 462 square 0;
#X obj 132 215 -~ 0.5;
#X obj 42 197 wrap~;
#X obj 42 220 -~ 0.5;
#X obj 42 175 -~ 0.5;
#X obj 42 289 -~;
#X obj 42 317 outlet~;
#X obj 42 94 phasor~;
#X obj 42 64 inlet;
#X connect 0 0 4 1;
#X connect 1 0 2 0;
#X connect 2 0 4 0;
#X connect 3 0 1 0;
#X connect 4 0 5 0;
#X connect 6 0 3 0;
#X connect 6 0 0 0;
#X connect 7 0 6 0;
#X restore 105 101 pd square;
#X connect 0 0 8 0;
#X connect 1 0 8 0;
#X connect 2 0 16 0;
#X connect 3 0 11 0;
#X connect 4 0 12 0;
#X connect 5 0 13 0;
#X connect 6 0 14 0;
#X connect 7 0 15 0;
#X connect 9 0 2 0;
#X connect 9 0 3 0;
#X connect 9 0 4 0;
#X connect 9 0 5 0;
#X connect 9 0 6 0;
#X connect 9 0 7 0;
#X connect 11 0 0 0;
#X connect 12 0 8 0;
#X connect 13 0 8 0;
#X connect 14 0 8 0;
#X connect 15 0 8 0;
#X connect 16 0 1 0;
#X restore 105 188 pd squarebattery;
#X obj 104 277 *~ 150;
#X obj 107 135 hsl 128 8 0 2 0 1 empty empty empty 134 4 0 8 -228856
-159808 -1 6667 1;
#X obj 271 387 *~ 0.1;
#X text 328 363 quadratic amp env;
#N canvas 482 221 1076 837 hipass8000 0;
#X obj 7 151 inlet~;
#X obj 182 581 outlet~;
#X obj 87 344 czero~;
#X obj 113 381 czero~;
#X obj 144 495 cpole~;
#X obj 183 542 cpole~;
#X obj 144 324 sig~ 0;
#X obj 127 300 sig~ 1;
#X text 98 279 zeros at fixed pos;
#X obj 180 435 sig~ 0.264714;
#X obj 208 464 sig~ 0.444066;
#X obj 224 493 sig~ -0.444066;
#X obj 36 255 *~ 0.449174;
#X text 52 86 highpassfilter at 8000 hz with low resonance;
#X connect 0 0 12 0;
#X connect 2 0 3 0;
#X connect 2 1 3 1;
#X connect 3 0 4 0;
#X connect 3 1 4 1;
#X connect 4 0 5 0;
#X connect 4 1 5 1;
#X connect 5 0 1 0;
#X connect 6 0 3 3;
#X connect 6 0 2 3;
#X connect 7 0 2 2;
#X connect 7 0 3 2;
#X connect 9 0 4 2;
#X connect 9 0 5 2;
#X connect 10 0 4 3;
#X connect 11 0 5 3;
#X connect 12 0 2 0;
#X restore 106 210 pd hipass8000;
#X obj 272 134 / 128;
#X msg 272 112 127;
#X text 103 107 Hihat;
#X obj 317 13 inlet;
#X obj 401 32 inlet;
#X obj 139 11 bng 15 250 50 0 empty empty empty 17 7 0 10 -262144 -1
-1;
#X obj 139 37 float;
#X obj 180 32 + 1;
#X floatatom 138 63 5 0 0 0 - - -;
#X obj 142 83 bng 15 250 50 0 empty empty empty 17 7 0 10 -262144 -1
-1;
#X obj 316 51 bng 15 250 50 0 empty empty empty 17 7 0 10 -262144 -1
-1;
#X floatatom 317 110 5 0 0 0 - - -;
#X floatatom 400 110 5 0 0 0 - - -;
#X obj 403 58 bng 15 250 50 0 empty empty empty 17 7 0 10 -262144 -1
-1;
#X obj 317 89 random 500;
#X obj 400 88 random 200;
#X floatatom 400 159 5 0 0 0 - - -;
#X obj 400 138 / 100;
#X obj 101 101 cnv 5 15 5 empty empty empty 20 12 0 14 -159808 -66577
0;
#X obj 101 149 cnv 5 15 5 empty empty empty 20 12 0 14 -260097 -66577
0;
#X obj 162 101 cnv 5 15 5 empty empty empty 20 12 0 14 -4034 -66577
0;
#X obj 224 101 cnv 5 15 5 empty empty empty 20 12 0 14 -4034 -66577
0;
#X connect 1 0 25 0;
#X connect 2 0 4 1;
#X connect 2 0 4 0;
#X connect 3 0 2 0;
#X connect 4 0 5 0;
#X connect 5 0 21 0;
#X connect 6 0 2 0;
#X connect 7 0 8 1;
#X connect 8 0 11 0;
#X connect 9 0 8 0;
#X connect 10 0 0 0;
#X connect 11 0 12 0;
#X connect 12 0 3 0;
#X connect 12 0 13 0;
#X connect 13 0 3 0;
#X connect 13 1 6 0;
#X connect 14 0 9 0;
#X connect 14 1 11 1;
#X connect 15 0 10 0;
#X connect 16 0 17 0;
#X connect 17 0 19 0;
#X connect 18 0 23 0;
#X connect 19 0 15 0;
#X connect 20 0 18 0;
#X connect 21 0 10 1;
#X connect 23 0 16 0;
#X connect 24 0 14 0;
#X connect 25 0 24 0;
#X connect 27 0 34 0;
#X connect 28 0 37 0;
#X connect 29 0 30 0;
#X connect 30 0 31 0;
#X connect 30 0 32 0;
#X connect 31 0 30 1;
#X connect 32 0 33 0;
#X connect 34 0 38 0;
#X connect 36 0 41 0;
#X connect 37 0 39 0;
#X connect 38 0 7 0;
#X connect 38 0 35 0;
#X connect 39 0 36 0;
#X connect 40 0 20 0;
#X connect 41 0 40 0;
#X coords 0 -1 1 1 140 55 2 100 100;
