#N canvas 450 249 450 300 10;
#X obj 39 243 *~;
#X obj 103 125 vsl 15 60 0 1 0 0 empty empty empty 0 -9 0 10 -262144
-1 -1 4840 1;
#X obj 40 20 inlet~;
#X obj 83 243 *~;
#X obj 121 125 vsl 15 60 0 1 0 0 empty empty empty 0 -9 0 10 -262144
-1 -1 2140 1;
#X obj 83 20 inlet~;
#X obj 126 243 *~;
#X obj 139 125 vsl 15 60 0 1 0 0 empty empty empty 0 -9 0 10 -262144
-1 -1 4640 1;
#X obj 126 20 inlet~;
#X obj 170 243 *~;
#X obj 157 125 vsl 15 60 0 1 0 0 empty empty empty 0 -9 0 10 -262144
-1 -1 3540 1;
#X obj 169 20 inlet~;
#X obj 211 243 *~;
#X obj 175 125 vsl 15 60 0 1 0 0 empty empty empty 0 -9 0 10 -262144
-1 -1 4340 1;
#X obj 212 20 inlet~;
#X obj 255 243 *~;
#X obj 193 125 vsl 15 60 0 1 0 0 empty empty empty 0 -9 0 10 -262144
-1 -1 1740 1;
#X obj 255 20 inlet~;
#X obj 298 243 *~;
#X obj 211 125 vsl 15 60 0 1 0 0 empty empty empty 0 -9 0 10 -262144
-1 -1 3540 1;
#X obj 298 20 inlet~;
#X obj 342 243 *~;
#X obj 229 125 vsl 15 60 0 1 0 0 empty empty empty 0 -9 0 10 -262144
-1 -1 3540 1;
#X obj 341 20 inlet~;
#X obj 175 277 outlet~;
#X text 103 107 Mixer 8;
#X obj 235 278 outlet~;
#X obj 232 108 bng 12 250 50 0 empty empty empty 17 7 0 10 -262144
-1 -1;
#X msg 324 103 0.6;
#X obj 177 67 loadbang;
#X obj 101 101 cnv 5 15 5 empty empty empty 20 12 0 14 -260097 -66577
0;
#X obj 119 101 cnv 5 15 5 empty empty empty 20 12 0 14 -260097 -66577
0;
#X obj 137 101 cnv 5 15 5 empty empty empty 20 12 0 14 -260097 -66577
0;
#X obj 156 101 cnv 5 15 5 empty empty empty 20 12 0 14 -260097 -66577
0;
#X obj 175 101 cnv 5 15 5 empty empty empty 20 12 0 14 -260097 -66577
0;
#X obj 194 101 cnv 5 15 5 empty empty empty 20 12 0 14 -260097 -66577
0;
#X obj 212 101 cnv 5 15 5 empty empty empty 20 12 0 14 -260097 -66577
0;
#X obj 231 101 cnv 5 15 5 empty empty empty 20 12 0 14 -260097 -66577
0;
#X obj 101 194 cnv 5 15 5 empty empty empty 20 12 0 14 -260097 -66577
0;
#X obj 231 194 cnv 5 15 5 empty empty empty 20 12 0 14 -260097 -66577
0;
#X connect 0 0 24 0;
#X connect 0 0 26 0;
#X connect 1 0 0 1;
#X connect 2 0 0 0;
#X connect 3 0 24 0;
#X connect 3 0 26 0;
#X connect 4 0 3 1;
#X connect 5 0 3 0;
#X connect 6 0 24 0;
#X connect 6 0 26 0;
#X connect 7 0 6 1;
#X connect 8 0 6 0;
#X connect 9 0 24 0;
#X connect 9 0 26 0;
#X connect 10 0 9 1;
#X connect 11 0 9 0;
#X connect 12 0 24 0;
#X connect 12 0 26 0;
#X connect 13 0 12 1;
#X connect 14 0 12 0;
#X connect 15 0 24 0;
#X connect 15 0 26 0;
#X connect 16 0 15 1;
#X connect 17 0 15 0;
#X connect 18 0 24 0;
#X connect 18 0 26 0;
#X connect 19 0 18 1;
#X connect 20 0 18 0;
#X connect 21 0 24 0;
#X connect 21 0 26 0;
#X connect 22 0 21 1;
#X connect 23 0 21 0;
#X connect 27 0 28 0;
#X connect 28 0 1 0;
#X connect 28 0 4 0;
#X connect 28 0 7 0;
#X connect 28 0 10 0;
#X connect 28 0 13 0;
#X connect 28 0 16 0;
#X connect 28 0 19 0;
#X connect 28 0 22 0;
#X connect 29 0 27 0;
#X coords 0 -1 1 1 147 100 2 100 100;
