#N canvas 226 230 1026 420 10;
#X obj 71 182 spigot;
#X obj 104 127 tgl 15 0 empty empty empty 17 7 0 10 -262144 -1 -1 1
1;
#X obj 71 28 inlet;
#X obj 71 50 bng 15 250 50 0 empty empty empty 17 7 0 10 -262144 -1
-1;
#X obj 104 146 bng 15 250 50 0 empty empty 1 4 7 0 10 -262144 -1 -1
;
#X obj 71 299 outlet;
#X obj 117 182 spigot;
#X obj 133 127 tgl 15 0 empty empty empty 17 7 0 10 -262144 -1 -1 1
1;
#X obj 167 28 inlet;
#X obj 167 50 bng 15 250 50 0 empty empty empty 17 7 0 10 -262144 -1
-1;
#X obj 133 146 bng 15 250 50 0 empty empty 2 4 7 0 10 -262144 -1 -1
;
#X obj 117 299 outlet;
#X obj 161 182 spigot;
#X obj 162 127 tgl 15 0 empty empty empty 17 7 0 10 -262144 -1 -1 1
1;
#X obj 261 28 inlet;
#X obj 257 50 bng 15 250 50 0 empty empty empty 17 7 0 10 -262144 -1
-1;
#X obj 162 146 bng 15 250 50 0 empty empty 3 4 7 0 10 -262144 -1 -1
;
#X obj 161 299 outlet;
#X obj 207 182 spigot;
#X obj 191 127 tgl 15 0 empty empty empty 17 7 0 10 -262144 -1 -1 1
1;
#X obj 367 28 inlet;
#X obj 367 50 bng 15 250 50 0 empty empty empty 17 7 0 10 -262144 -1
-1;
#X obj 191 146 bng 15 250 50 0 empty empty 4 4 7 0 10 -262144 -1 -1
;
#X obj 207 299 outlet;
#X obj 251 182 spigot;
#X obj 220 127 tgl 15 0 empty empty empty 17 7 0 10 -262144 -1 -1 1
1;
#X obj 471 28 inlet;
#X obj 471 50 bng 15 250 50 0 empty empty empty 17 7 0 10 -262144 -1
-1;
#X obj 220 146 bng 15 250 50 0 empty empty 5 4 7 0 10 -262144 -1 -1
;
#X obj 251 299 outlet;
#X obj 297 182 spigot;
#X obj 249 127 tgl 15 0 empty empty empty 17 7 0 10 -262144 -1 -1 1
1;
#X obj 567 28 inlet;
#X obj 567 50 bng 15 250 50 0 empty empty empty 17 7 0 10 -262144 -1
-1;
#X obj 249 146 bng 15 250 50 0 empty empty 6 4 7 0 10 -262144 -1 -1
;
#X obj 297 299 outlet;
#X obj 341 182 spigot;
#X obj 278 127 tgl 15 0 empty empty empty 17 7 0 10 -262144 -1 -1 1
1;
#X obj 671 28 inlet;
#X obj 671 50 bng 15 250 50 0 empty empty empty 17 7 0 10 -262144 -1
-1;
#X obj 278 146 bng 15 250 50 0 empty empty 7 4 7 0 10 -262144 -1 -1
;
#X obj 341 299 outlet;
#X obj 387 182 spigot;
#X obj 307 127 tgl 15 0 empty empty empty 17 7 0 10 -262144 -1 -1 1
1;
#X obj 777 28 inlet;
#X obj 777 50 bng 15 250 50 0 empty empty empty 17 7 0 10 -262144 -1
-1;
#X obj 307 146 bng 15 250 50 0 empty empty 8 4 7 0 10 -262144 -1 -1
;
#X obj 387 299 outlet;
#X obj 77 334 loadbang;
#X obj 104 380 bng 15 250 50 0 empty empty empty 17 7 0 10 -262144
-1 -1;
#X obj 70 206 float;
#X obj 110 207 + 1;
#X obj 141 206 float;
#X obj 181 207 + 1;
#X obj 212 207 float;
#X obj 252 208 + 1;
#X obj 282 209 float;
#X obj 322 210 + 1;
#X obj 96 243 float;
#X obj 136 244 + 1;
#X obj 167 243 float;
#X obj 207 244 + 1;
#X obj 238 244 float;
#X obj 278 245 + 1;
#X obj 308 246 float;
#X obj 348 247 + 1;
#X obj 119 28 inlet;
#X obj 210 28 inlet;
#X obj 309 28 inlet;
#X obj 410 28 inlet;
#X obj 518 28 inlet;
#X obj 619 28 inlet;
#X obj 718 28 inlet;
#X obj 824 28 inlet;
#X obj 645 140 bng 15 250 50 0 empty empty empty 17 7 0 10 -262144
-1 -1;
#X obj 643 263 float;
#X obj 683 263 + 1;
#X obj 637 313 bng 15 250 50 0 empty empty empty 17 7 0 10 -262144
-1 -1;
#X obj 117 50 bng 15 250 50 0 empty empty empty 17 7 0 10 -262144 -1
-1;
#X obj 202 50 bng 15 250 50 0 empty empty empty 17 7 0 10 -262144 -1
-1;
#X obj 308 50 bng 15 250 50 0 empty empty empty 17 7 0 10 -262144 -1
-1;
#X obj 410 50 bng 15 250 50 0 empty empty empty 17 7 0 10 -262144 -1
-1;
#X obj 518 50 bng 15 250 50 0 empty empty empty 17 7 0 10 -262144 -1
-1;
#X obj 620 50 bng 15 250 50 0 empty empty empty 17 7 0 10 -262144 -1
-1;
#X obj 718 50 bng 15 250 50 0 empty empty empty 17 7 0 10 -262144 -1
-1;
#X obj 823 50 bng 15 250 50 0 empty empty empty 17 7 0 10 -262144 -1
-1;
#X text 103 110 Multy-Toggle;
#X obj 101 101 cnv 5 9 5 empty empty empty 20 12 0 14 -159808 -66577
0;
#X obj 113 101 cnv 5 9 5 empty empty empty 20 12 0 14 -4034 -66577
0;
#X obj 128 101 cnv 5 9 5 empty empty empty 20 12 0 14 -159808 -66577
0;
#X obj 142 101 cnv 5 9 5 empty empty empty 20 12 0 14 -4034 -66577
0;
#X obj 157 101 cnv 5 9 5 empty empty empty 20 12 0 14 -159808 -66577
0;
#X obj 172 101 cnv 5 9 5 empty empty empty 20 12 0 14 -4034 -66577
0;
#X obj 186 101 cnv 5 9 5 empty empty empty 20 12 0 14 -159808 -66577
0;
#X obj 201 101 cnv 5 9 5 empty empty empty 20 12 0 14 -4034 -66577
0;
#X obj 215 101 cnv 5 9 5 empty empty empty 20 12 0 14 -159808 -66577
0;
#X obj 230 101 cnv 5 9 5 empty empty empty 20 12 0 14 -4034 -66577
0;
#X obj 245 101 cnv 5 9 5 empty empty empty 20 12 0 14 -159808 -66577
0;
#X obj 259 101 cnv 5 9 5 empty empty empty 20 12 0 14 -4034 -66577
0;
#X obj 274 101 cnv 5 9 5 empty empty empty 20 12 0 14 -159808 -66577
0;
#X obj 288 101 cnv 5 9 5 empty empty empty 20 12 0 14 -4034 -66577
0;
#X obj 302 101 cnv 5 9 5 empty empty empty 20 12 0 14 -159808 -66577
0;
#X obj 316 101 cnv 5 9 5 empty empty empty 20 12 0 14 -4034 -66577
0;
#X obj 101 164 cnv 5 15 5 empty empty empty 20 12 0 14 -159808 -66577
0;
#X obj 131 164 cnv 5 15 5 empty empty empty 20 12 0 14 -159808 -66577
0;
#X obj 162 164 cnv 5 15 5 empty empty empty 20 12 0 14 -159808 -66577
0;
#X obj 191 164 cnv 5 15 5 empty empty empty 20 12 0 14 -159808 -66577
0;
#X obj 221 164 cnv 5 15 5 empty empty empty 20 12 0 14 -159808 -66577
0;
#X obj 250 164 cnv 5 15 5 empty empty empty 20 12 0 14 -159808 -66577
0;
#X obj 280 164 cnv 5 15 5 empty empty empty 20 12 0 14 -159808 -66577
0;
#X obj 310 164 cnv 5 15 5 empty empty empty 20 12 0 14 -159808 -66577
0;
#X connect 0 0 4 0;
#X connect 1 0 0 1;
#X connect 2 0 3 0;
#X connect 3 0 0 0;
#X connect 4 0 50 0;
#X connect 6 0 10 0;
#X connect 7 0 6 1;
#X connect 8 0 9 0;
#X connect 9 0 6 0;
#X connect 10 0 52 0;
#X connect 12 0 16 0;
#X connect 13 0 12 1;
#X connect 14 0 15 0;
#X connect 15 0 12 0;
#X connect 16 0 54 0;
#X connect 18 0 22 0;
#X connect 19 0 18 1;
#X connect 20 0 21 0;
#X connect 21 0 18 0;
#X connect 22 0 56 0;
#X connect 24 0 28 0;
#X connect 25 0 24 1;
#X connect 26 0 27 0;
#X connect 27 0 24 0;
#X connect 28 0 58 0;
#X connect 30 0 34 0;
#X connect 31 0 30 1;
#X connect 32 0 33 0;
#X connect 33 0 30 0;
#X connect 34 0 60 0;
#X connect 36 0 40 0;
#X connect 37 0 36 1;
#X connect 38 0 39 0;
#X connect 39 0 36 0;
#X connect 40 0 62 0;
#X connect 42 0 46 0;
#X connect 43 0 42 1;
#X connect 44 0 45 0;
#X connect 45 0 42 0;
#X connect 46 0 64 0;
#X connect 48 0 49 0;
#X connect 49 0 1 0;
#X connect 49 0 43 0;
#X connect 49 0 37 0;
#X connect 49 0 31 0;
#X connect 49 0 25 0;
#X connect 49 0 19 0;
#X connect 49 0 13 0;
#X connect 49 0 7 0;
#X connect 50 0 51 0;
#X connect 50 0 5 0;
#X connect 51 0 50 1;
#X connect 52 0 53 0;
#X connect 52 0 11 0;
#X connect 53 0 52 1;
#X connect 54 0 55 0;
#X connect 54 0 17 0;
#X connect 55 0 54 1;
#X connect 56 0 57 0;
#X connect 56 0 23 0;
#X connect 57 0 56 1;
#X connect 58 0 59 0;
#X connect 58 0 29 0;
#X connect 59 0 58 1;
#X connect 60 0 61 0;
#X connect 60 0 35 0;
#X connect 61 0 60 1;
#X connect 62 0 63 0;
#X connect 62 0 41 0;
#X connect 63 0 62 1;
#X connect 64 0 65 0;
#X connect 64 0 47 0;
#X connect 65 0 64 1;
#X connect 66 0 78 0;
#X connect 67 0 79 0;
#X connect 68 0 80 0;
#X connect 69 0 81 0;
#X connect 70 0 82 0;
#X connect 71 0 83 0;
#X connect 72 0 84 0;
#X connect 73 0 85 0;
#X connect 74 0 75 0;
#X connect 75 0 76 0;
#X connect 75 0 77 0;
#X connect 76 0 75 1;
#X connect 78 0 1 0;
#X connect 79 0 7 0;
#X connect 80 0 13 0;
#X connect 81 0 19 0;
#X connect 82 0 25 0;
#X connect 83 0 31 0;
#X connect 84 0 37 0;
#X connect 85 0 43 0;
#X coords 0 -1 1 1 226 70 2 100 100;
