#N canvas 205 36 546 560 10;
#X obj 39 13 bng 15 250 50 0 empty empty empty 17 7 0 10 -262144 -1
-1;
#X obj 39 32 openpanel;
#X obj 39 92 soundfiler;
#X obj 39 153 expr 44100 / $f1;
#X floatatom 90 115 12 0 0 0 - - -;
#X obj 39 243 phasor~;
#X floatatom 47 183 12 0 0 0 - - -;
#X obj 267 99 hsl 128 15 -1 1 0 0 empty empty empty -2 -8 0 10 -262144
-1 -1 6620 1;
#X floatatom 264 119 5 0 0 0 - - -;
#X msg 184 190 0;
#X msg 185 209 0.5;
#X obj 39 293 *~;
#X obj 236 256 tgl 15 0 empty empty empty 17 7 0 10 -262144 -1 -1 1
1;
#X obj 236 276 metro 50;
#X obj 236 296 snapshot~;
#X floatatom 236 316 12 0 0 0 - - -;
#X obj 236 355 /;
#X floatatom 236 375 5 0 0 0 - - -;
#X obj 408 383 hsl 95 15 0 1 0 0 empty empty empty -2 -8 0 10 -262144
-1 -1 5525 1;
#N canvas 0 25 450 278 (subpatch) 0;
#X array \$0-chL 705600 float 2;
#X coords 0 1 705600 -1 100 30 1 0 0;
#X restore 405 353 graph;
#N canvas 0 22 450 278 (subpatch) 0;
#X array \$0-chR 705600 float 2;
#X coords 0 1 705600 -1 100 30 2 0 0;
#X restore 405 411 graph;
#X obj 264 60 bng 15 250 50 0 empty empty empty 17 7 0 10 -262144 -1
-1;
#X text 283 61 normal speed;
#X obj 276 164 bng 15 250 50 0 empty empty empty 17 7 0 10 -262144
-1 -1;
#X obj 276 185 t b b;
#X msg 276 205 0;
#X text 294 163 stop;
#X obj 215 164 bng 15 250 50 0 empty empty empty 17 7 0 10 -262144
-1 -1;
#X text 235 164 Start;
#X obj 90 134 s \$0-sampleSize;
#X obj 63 271 r \$0-sampleSize;
#X obj 260 337 r \$0-sampleSize;
#X obj 37 360 *~ 1;
#X obj 75 360 *~ 1;
#X obj 365 154 tgl 15 0 empty empty empty 17 7 0 10 -262144 -1 -1 0
1;
#X obj 365 194 random 1000;
#X floatatom 339 252 5 0 0 0 - - -;
#X obj 339 232 / 1000;
#X obj 365 174 metro 500;
#X text 390 154 random position;
#X obj 405 322 bng 15 250 50 0 empty empty empty 17 7 0 10 -262144
-1 -1;
#X obj 405 459 tgl 15 0 empty empty empty 17 7 0 10 -262144 -1 -1 0
1;
#X obj 405 478 bng 15 250 50 0 empty empty empty 17 7 0 10 -262144
-1 -1;
#X text 423 478 Normal speed;
#X obj 405 516 bng 15 250 50 0 empty empty empty 17 7 0 10 -262144
-1 -1;
#X obj 456 516 bng 15 250 50 0 empty empty empty 17 7 0 10 -262144
-1 -1;
#X obj 35 414 outlet~;
#X obj 69 434 outlet~;
#X obj 141 22 inlet;
#X obj 408 497 hsl 95 15 -1 1 0 0 empty empty empty -2 -8 0 10 -262144
-1 -1 4994 1;
#X obj 233 228 loadbang;
#X obj 408 441 hsl 95 15 0 1 0 0 empty empty empty -2 -8 0 10 -262144
-1 -1 4963 1;
#X obj 459 241 bng 15 250 50 0 empty empty empty 17 7 0 10 -262144
-1 -1;
#X text 479 241 trigger;
#X obj 47 201 s \$0-speed;
#X obj 264 80 r \$0-speed;
#X obj 39 52 pack s \$0;
#X obj 39 313 tabread4~ \$0-chL;
#X obj 58 332 tabread4~ \$0-chR;
#X msg 39 73 read -resize \$1 \$2-chL \$2-chR;
#X text 34 498 Octopus2 by Lomz.net;
#X text 34 517 2021;
#X text 422 322 Open file;
#X text 403 306 Sample;
#X text 475 516 Stop;
#X text 422 516 Start;
#X text 408 383 Current position;
#X text 409 441 Start postion;
#X text 407 497 Play speed;
#X obj 401 301 cnv 5 15 5 empty empty empty 20 12 0 14 -159808 -66577
0;
#X obj 494 301 cnv 5 15 5 empty empty empty 20 12 0 14 -4034 -66577
0;
#X obj 428 30 inlet;
#X text 425 48 poke random;
#X text 425 63 start positon;
#X text 139 38 Tempo;
#X obj 428 94 random 1000;
#X obj 428 114 / 1000;
#X floatatom 428 134 5 0 0 0 - - -;
#X obj 407 77 bng 15 250 50 0 empty empty empty 17 7 0 10 -262144 -1
-1;
#X obj 401 534 cnv 5 15 5 empty empty empty 20 12 0 14 -260097 -66577
0;
#X obj 494 534 cnv 5 15 5 empty empty empty 20 12 0 14 -260097 -66577
0;
#X text 423 459 Rnd. position;
#X connect 0 0 1 0;
#X connect 1 0 56 0;
#X connect 2 0 4 0;
#X connect 2 0 3 0;
#X connect 3 0 5 0;
#X connect 3 0 6 0;
#X connect 4 0 29 0;
#X connect 5 0 11 0;
#X connect 6 0 54 0;
#X connect 7 0 8 0;
#X connect 8 0 5 0;
#X connect 9 0 5 1;
#X connect 10 0 5 1;
#X connect 11 0 14 0;
#X connect 11 0 57 0;
#X connect 11 0 58 0;
#X connect 12 0 13 0;
#X connect 13 0 14 0;
#X connect 14 0 15 0;
#X connect 15 0 16 0;
#X connect 16 0 17 0;
#X connect 17 0 18 0;
#X connect 21 0 6 0;
#X connect 23 0 24 0;
#X connect 24 0 25 0;
#X connect 24 1 9 0;
#X connect 25 0 5 0;
#X connect 27 0 8 0;
#X connect 30 0 11 1;
#X connect 31 0 16 1;
#X connect 32 0 46 0;
#X connect 33 0 47 0;
#X connect 34 0 38 0;
#X connect 35 0 37 0;
#X connect 36 0 5 1;
#X connect 37 0 36 0;
#X connect 38 0 35 0;
#X connect 40 0 0 0;
#X connect 41 0 34 0;
#X connect 42 0 21 0;
#X connect 44 0 27 0;
#X connect 45 0 23 0;
#X connect 48 0 51 0;
#X connect 49 0 7 0;
#X connect 50 0 12 0;
#X connect 51 0 5 1;
#X connect 52 0 51 0;
#X connect 55 0 7 0;
#X connect 55 0 49 0;
#X connect 56 0 59 0;
#X connect 57 0 32 0;
#X connect 58 0 33 0;
#X connect 59 0 2 0;
#X connect 71 0 78 0;
#X connect 75 0 76 0;
#X connect 76 0 77 0;
#X connect 77 0 51 0;
#X connect 78 0 75 0;
#X coords 0 -1 1 1 110 240 2 400 300;
