#N canvas 499 25 941 783 10;
#X obj 106 34 inlet;
#X obj 104 152 tgl 15 0 empty \$0-ts16s1 empty 17 7 0 10 -262144 -1
-233017 0 1;
#X obj 108 538 spigot;
#X obj 108 560 bng 15 250 50 0 empty empty empty 17 7 0 10 -262144
-1 -1;
#X obj 108 500 select 0 1 2 3 4 5 6 7 8 9 10 11 12 13 14 15;
#X obj 108 521 bng 8 250 50 0 empty empty empty 17 7 0 10 -262144 -1
-1;
#X obj 126 522 bng 12 250 50 0 empty empty empty 17 7 0 10 -262144
-1 -1;
#X obj 152 521 bng 12 250 50 0 empty empty empty 17 7 0 10 -262144
-1 -1;
#X obj 174 521 bng 12 250 50 0 empty empty empty 17 7 0 10 -262144
-1 -1;
#X obj 196 521 bng 12 250 50 0 empty empty empty 17 7 0 10 -262144
-1 -1;
#X obj 218 521 bng 12 250 50 0 empty empty empty 17 7 0 10 -262144
-1 -1;
#X obj 240 521 bng 12 250 50 0 empty empty empty 17 7 0 10 -262144
-1 -1;
#X obj 262 521 bng 12 250 50 0 empty empty empty 17 7 0 10 -262144
-1 -1;
#X obj 284 521 bng 12 250 50 0 empty empty empty 17 7 0 10 -262144
-1 -1;
#X obj 306 521 bng 12 250 50 0 empty empty empty 17 7 0 10 -262144
-1 -1;
#X obj 328 521 bng 12 250 50 0 empty empty empty 17 7 0 10 -262144
-1 -1;
#X obj 351 522 bng 12 250 50 0 empty empty empty 17 7 0 10 -262144
-1 -1;
#X obj 372 521 bng 12 250 50 0 empty empty empty 17 7 0 10 -262144
-1 -1;
#X obj 394 521 bng 12 250 50 0 empty empty empty 17 7 0 10 -262144
-1 -1;
#X obj 416 521 bng 12 250 50 0 empty empty empty 17 7 0 10 -262144
-1 -1;
#X obj 438 521 bng 12 250 50 0 empty empty empty 17 7 0 10 -262144
-1 -1;
#X obj 122 152 tgl 15 0 empty \$0-ts16s2 empty 17 7 0 10 -262144 -1
-233017 1 1;
#X obj 109 580 spigot;
#X obj 109 599 bng 15 250 50 0 empty empty empty 17 7 0 10 -262144
-1 -1;
#X obj 140 152 tgl 15 0 empty \$0-ts16s3 empty 17 7 0 10 -262144 -1
-233017 0 1;
#X obj 154 538 spigot;
#X obj 153 560 bng 15 250 50 0 empty empty empty 17 7 0 10 -262144
-1 -1;
#X obj 158 152 tgl 15 0 empty \$0-ts16s4 empty 17 7 0 10 -262144 -1
-233017 0 1;
#X obj 155 580 spigot;
#X obj 155 599 bng 15 250 50 0 empty empty empty 17 7 0 10 -262144
-1 -1;
#X obj 176 152 tgl 15 0 empty t_5 empty 17 7 0 10 -262144 -1 -1 1 1
;
#X obj 198 537 spigot;
#X obj 198 559 bng 15 250 50 0 empty empty empty 17 7 0 10 -262144
-1 -1;
#X obj 194 152 tgl 15 0 empty t_6 empty 17 7 0 10 -262144 -1 -1 0 1
;
#X obj 199 579 spigot;
#X obj 199 598 bng 15 250 50 0 empty empty empty 17 7 0 10 -262144
-1 -1;
#X obj 212 152 tgl 15 0 empty t_7 empty 17 7 0 10 -262144 -1 -1 1 1
;
#X obj 244 537 spigot;
#X obj 244 559 bng 15 250 50 0 empty empty empty 17 7 0 10 -262144
-1 -1;
#X obj 230 152 tgl 15 0 empty t_8 empty 17 7 0 10 -262144 -1 -1 0 1
;
#X obj 245 579 spigot;
#X obj 245 598 bng 15 250 50 0 empty empty empty 17 7 0 10 -262144
-1 -1;
#X obj 248 152 tgl 15 0 empty t_9 empty 17 7 0 10 -262144 -1 -1 1 1
;
#X obj 288 536 spigot;
#X obj 288 558 bng 15 250 50 0 empty empty empty 17 7 0 10 -262144
-1 -1;
#X obj 266 152 tgl 15 0 empty t_10 empty 17 7 0 10 -262144 -1 -1 1
1;
#X obj 289 578 spigot;
#X obj 289 597 bng 15 250 50 0 empty empty empty 17 7 0 10 -262144
-1 -1;
#X obj 284 152 tgl 15 0 empty t_11 empty 17 7 0 10 -262144 -1 -1 0
1;
#X obj 334 536 spigot;
#X obj 334 558 bng 15 250 50 0 empty empty empty 17 7 0 10 -262144
-1 -1;
#X obj 302 152 tgl 15 0 empty t_12 empty 17 7 0 10 -262144 -1 -1 1
1;
#X obj 335 578 spigot;
#X obj 335 597 bng 15 250 50 0 empty empty empty 17 7 0 10 -262144
-1 -1;
#X obj 320 152 tgl 15 0 empty t_13 empty 17 7 0 10 -262144 -1 -1 1
1;
#X obj 378 535 spigot;
#X obj 378 557 bng 15 250 50 0 empty empty empty 17 7 0 10 -262144
-1 -1;
#X obj 338 152 tgl 15 0 empty t_14 empty 17 7 0 10 -262144 -1 -1 0
1;
#X obj 379 577 spigot;
#X obj 379 596 bng 15 250 50 0 empty empty empty 17 7 0 10 -262144
-1 -1;
#X obj 356 152 tgl 15 0 empty t_15 empty 17 7 0 10 -262144 -1 -1 1
1;
#X obj 424 535 spigot;
#X obj 424 557 bng 15 250 50 0 empty empty empty 17 7 0 10 -262144
-1 -1;
#X obj 374 152 tgl 15 0 empty t_16 empty 17 7 0 10 -262144 -1 -1 1
1;
#X obj 425 577 spigot;
#X obj 425 596 bng 15 250 50 0 empty empty empty 17 7 0 10 -262144
-1 -1;
#X obj 495 508 random 2;
#X floatatom 515 528 5 0 0 0 - - -;
#X obj 374 124 bng 15 250 50 0 empty empty empty 17 7 0 10 -159808
-1 -1;
#X obj 553 508 random 2;
#X floatatom 573 528 5 0 0 0 - - -;
#X obj 610 508 random 2;
#X floatatom 630 528 5 0 0 0 - - -;
#X obj 667 509 random 2;
#X floatatom 687 529 5 0 0 0 - - -;
#X obj 495 548 random 2;
#X floatatom 516 569 5 0 0 0 - - -;
#X obj 553 548 random 2;
#X floatatom 574 569 5 0 0 0 - - -;
#X obj 610 548 random 2;
#X floatatom 631 569 5 0 0 0 - - -;
#X obj 667 549 random 2;
#X floatatom 688 570 5 0 0 0 - - -;
#X obj 496 588 random 2;
#X floatatom 516 609 5 0 0 0 - - -;
#X obj 554 588 random 2;
#X floatatom 574 609 5 0 0 0 - - -;
#X obj 611 588 random 2;
#X floatatom 631 609 5 0 0 0 - - -;
#X obj 668 589 random 2;
#X floatatom 688 610 5 0 0 0 - - -;
#X obj 496 628 random 2;
#X floatatom 516 649 5 0 0 0 - - -;
#X obj 554 628 random 2;
#X floatatom 574 649 5 0 0 0 - - -;
#X obj 611 628 random 2;
#X floatatom 631 649 5 0 0 0 - - -;
#X obj 668 629 random 2;
#X floatatom 688 650 5 0 0 0 - - -;
#X obj 39 439 mod 16;
#X msg 196 371 16;
#X msg 166 371 8;
#X msg 107 371 4;
#X obj 122 124 bng 15 250 50 0 empty empty 6 5 8 1 10 -262144 -1 -1
;
#X obj 104 124 bng 15 250 50 0 empty empty 4 5 8 1 10 -262144 -1 -1
;
#X obj 140 124 bng 15 250 50 0 empty empty 8 5 8 1 10 -262144 -1 -1
;
#X obj 158 124 bng 15 250 50 0 empty empty 16 2 8 1 10 -262144 -1 -1
;
#X msg 138 372 6;
#X obj 179 124 hsl 50 15 2 16 0 0 empty empty empty -2 -8 0 10 -262144
-1 -1 4900 1;
#X floatatom 175 351 5 0 0 0 - - -;
#X obj 174 331 int;
#X floatatom 39 464 5 0 0 0 - - -;
#X obj 104 142 bng 8 250 50 0 empty empty empty 17 7 0 10 -262144 -4034
-262144;
#X obj 122 142 bng 8 250 50 0 empty empty empty 17 7 0 10 -262144 -4034
-1;
#X obj 140 142 bng 8 250 50 0 empty empty empty 17 7 0 10 -262144 -4034
-1;
#X obj 158 142 bng 8 250 50 0 empty empty empty 17 7 0 10 -262144 -1
-1;
#X obj 176 142 bng 8 250 50 0 empty empty empty 17 7 0 10 -262144 -1
-1;
#X obj 194 142 bng 8 250 50 0 empty empty empty 17 7 0 10 -262144 -1
-1;
#X obj 212 142 bng 8 250 50 0 empty empty empty 17 7 0 10 -262144 -1
-1;
#X obj 230 142 bng 8 250 50 0 empty empty empty 17 7 0 10 -262144 -1
-1;
#X obj 248 142 bng 8 250 50 0 empty empty empty 17 7 0 10 -262144 -1
-1;
#X obj 266 142 bng 8 250 50 0 empty empty empty 17 7 0 10 -262144 -1
-1;
#X obj 284 142 bng 8 250 50 0 empty empty empty 17 7 0 10 -262144 -1
-1;
#X obj 302 142 bng 8 250 50 0 empty empty empty 17 7 0 10 -262144 -1
-1;
#X obj 320 142 bng 8 250 50 0 empty empty empty 17 7 0 10 -262144 -1
-1;
#X obj 338 142 bng 8 250 50 0 empty empty empty 17 7 0 10 -262144 -1
-1;
#X obj 356 142 bng 8 250 50 0 empty empty empty 17 7 0 10 -262144 -1
-1;
#X obj 374 142 bng 8 250 50 0 empty empty empty 17 7 0 10 -262144 -1
-1;
#X floatatom 234 124 5 0 0 0 - - -;
#X obj 373 40 inlet;
#X text 102 15 tempo in;
#X text 368 20 random steps;
#X obj 112 650 bng 15 250 50 0 empty empty empty 17 7 0 10 -262144
-1 -1;
#X obj 112 699 outlet;
#X obj 501 36 loadbang;
#X msg 218 61 16;
#X text 267 124 S;
#X obj 321 124 bng 15 250 50 0 empty empty empty 17 7 0 10 -262144
-1 -1;
#X text 284 124 R.S.L;
#X text 347 124 R.S;
#X floatatom 608 327 5 0 0 0 - - -;
#X obj 607 376 bng 15 250 50 0 empty empty empty 17 7 0 10 -262144
-1 -1;
#X obj 628 376 bng 15 250 50 0 empty empty empty 17 7 0 10 -262144
-1 -1;
#X obj 649 376 bng 15 250 50 0 empty empty empty 17 7 0 10 -262144
-1 -1;
#X obj 670 376 bng 15 250 50 0 empty empty empty 17 7 0 10 -262144
-1 -1;
#X obj 607 307 random 5;
#X obj 607 352 select 0 1 2 3 4;
#X obj 692 376 bng 15 250 50 0 empty empty empty 17 7 0 10 -262144
-1 -1;
#X msg 692 395 5;
#X obj 242 37 inlet;
#X obj 101 101 cnv 5 15 5 empty empty empty 20 12 0 14 -159808 -66577
0;
#X obj 241 101 cnv 5 15 5 empty empty empty 20 12 0 14 -4034 -66577
0;
#X obj 375 101 cnv 5 15 5 empty empty empty 20 12 0 14 -4034 -66577
0;
#X obj 101 173 cnv 5 15 5 empty empty empty 20 12 0 14 -159808 -66577
0;
#X text 111 722 tempo out;
#X text 242 14 random length;
#X text 102 107 16 steps sequencer;
#X obj 22 328 float;
#X obj 66 328 + 1;
#X obj 179 674 float;
#X obj 219 674 + 1;
#X connect 0 0 157 0;
#X connect 1 0 2 1;
#X connect 2 0 3 0;
#X connect 3 0 132 0;
#X connect 4 0 5 0;
#X connect 4 1 6 0;
#X connect 4 2 7 0;
#X connect 4 3 8 0;
#X connect 4 4 9 0;
#X connect 4 5 10 0;
#X connect 4 6 11 0;
#X connect 4 7 12 0;
#X connect 4 8 13 0;
#X connect 4 9 14 0;
#X connect 4 10 15 0;
#X connect 4 11 16 0;
#X connect 4 12 17 0;
#X connect 4 13 18 0;
#X connect 4 14 19 0;
#X connect 4 15 20 0;
#X connect 5 0 2 0;
#X connect 5 0 112 0;
#X connect 6 0 22 0;
#X connect 6 0 113 0;
#X connect 7 0 25 0;
#X connect 7 0 114 0;
#X connect 8 0 28 0;
#X connect 8 0 115 0;
#X connect 9 0 31 0;
#X connect 9 0 116 0;
#X connect 10 0 34 0;
#X connect 10 0 117 0;
#X connect 11 0 37 0;
#X connect 11 0 118 0;
#X connect 12 0 40 0;
#X connect 12 0 119 0;
#X connect 13 0 43 0;
#X connect 13 0 120 0;
#X connect 14 0 46 0;
#X connect 14 0 121 0;
#X connect 15 0 49 0;
#X connect 15 0 122 0;
#X connect 16 0 52 0;
#X connect 16 0 123 0;
#X connect 17 0 55 0;
#X connect 17 0 124 0;
#X connect 18 0 58 0;
#X connect 18 0 125 0;
#X connect 19 0 61 0;
#X connect 19 0 126 0;
#X connect 20 0 64 0;
#X connect 20 0 127 0;
#X connect 21 0 22 1;
#X connect 22 0 23 0;
#X connect 23 0 132 0;
#X connect 24 0 25 1;
#X connect 25 0 26 0;
#X connect 26 0 132 0;
#X connect 27 0 28 1;
#X connect 28 0 29 0;
#X connect 29 0 132 0;
#X connect 30 0 31 1;
#X connect 31 0 32 0;
#X connect 32 0 132 0;
#X connect 33 0 34 1;
#X connect 34 0 35 0;
#X connect 35 0 132 0;
#X connect 36 0 37 1;
#X connect 37 0 38 0;
#X connect 38 0 132 0;
#X connect 39 0 40 1;
#X connect 40 0 41 0;
#X connect 41 0 132 0;
#X connect 42 0 43 1;
#X connect 43 0 44 0;
#X connect 44 0 132 0;
#X connect 45 0 46 1;
#X connect 46 0 47 0;
#X connect 47 0 132 0;
#X connect 48 0 49 1;
#X connect 49 0 50 0;
#X connect 50 0 132 0;
#X connect 51 0 52 1;
#X connect 52 0 53 0;
#X connect 53 0 132 0;
#X connect 54 0 55 1;
#X connect 55 0 56 0;
#X connect 56 0 132 0;
#X connect 57 0 58 1;
#X connect 58 0 59 0;
#X connect 59 0 132 0;
#X connect 60 0 61 1;
#X connect 61 0 62 0;
#X connect 62 0 132 0;
#X connect 63 0 64 1;
#X connect 64 0 65 0;
#X connect 65 0 132 0;
#X connect 66 0 67 0;
#X connect 67 0 1 0;
#X connect 68 0 66 0;
#X connect 68 0 69 0;
#X connect 68 0 71 0;
#X connect 68 0 72 0;
#X connect 68 0 73 0;
#X connect 68 0 75 0;
#X connect 68 0 77 0;
#X connect 68 0 79 0;
#X connect 68 0 81 0;
#X connect 68 0 83 0;
#X connect 68 0 85 0;
#X connect 68 0 87 0;
#X connect 68 0 89 0;
#X connect 68 0 91 0;
#X connect 68 0 93 0;
#X connect 68 0 95 0;
#X connect 68 0 97 0;
#X connect 69 0 70 0;
#X connect 70 0 21 0;
#X connect 71 0 72 0;
#X connect 72 0 24 0;
#X connect 73 0 74 0;
#X connect 74 0 27 0;
#X connect 75 0 76 0;
#X connect 76 0 30 0;
#X connect 77 0 78 0;
#X connect 78 0 33 0;
#X connect 79 0 80 0;
#X connect 80 0 36 0;
#X connect 81 0 82 0;
#X connect 82 0 39 0;
#X connect 83 0 84 0;
#X connect 84 0 42 0;
#X connect 85 0 86 0;
#X connect 86 0 45 0;
#X connect 87 0 88 0;
#X connect 88 0 48 0;
#X connect 89 0 90 0;
#X connect 90 0 51 0;
#X connect 91 0 92 0;
#X connect 92 0 54 0;
#X connect 93 0 94 0;
#X connect 94 0 57 0;
#X connect 95 0 96 0;
#X connect 96 0 60 0;
#X connect 97 0 98 0;
#X connect 98 0 63 0;
#X connect 99 0 4 0;
#X connect 99 0 111 0;
#X connect 100 0 99 1;
#X connect 100 0 128 0;
#X connect 101 0 99 1;
#X connect 101 0 128 0;
#X connect 102 0 99 1;
#X connect 102 0 128 0;
#X connect 103 0 107 0;
#X connect 104 0 102 0;
#X connect 105 0 101 0;
#X connect 106 0 100 0;
#X connect 107 0 99 1;
#X connect 107 0 128 0;
#X connect 108 0 99 1;
#X connect 108 0 110 0;
#X connect 109 0 128 0;
#X connect 110 0 109 0;
#X connect 129 0 68 0;
#X connect 132 0 133 0;
#X connect 134 0 68 0;
#X connect 134 0 100 0;
#X connect 134 0 135 0;
#X connect 135 0 108 0;
#X connect 137 0 145 0;
#X connect 140 0 146 0;
#X connect 141 0 102 0;
#X connect 142 0 107 0;
#X connect 143 0 101 0;
#X connect 144 0 100 0;
#X connect 145 0 140 0;
#X connect 146 0 141 0;
#X connect 146 1 142 0;
#X connect 146 2 143 0;
#X connect 146 3 144 0;
#X connect 146 4 147 0;
#X connect 147 0 148 0;
#X connect 148 0 99 1;
#X connect 148 0 128 0;
#X connect 149 0 137 0;
#X connect 157 0 158 0;
#X connect 157 0 99 0;
#X connect 158 0 157 1;
#X connect 159 0 160 0;
#X connect 160 0 159 1;
#X coords 0 -1 1 1 291 79 2 100 100;
