#N canvas 237 43 1203 692 12;
#X obj 13 52 clock;
#X obj 94 14 dsp;
#X obj 522 17 cnv 15 15 15 empty empty Btn_in_-_Tempo 18 8 0 14 -159808
-66577 0;
#X obj 669 17 cnv 15 15 15 empty empty BTN_in_Poke 18 8 0 14 -4034
-66577 0;
#X obj 117 52 divider;
#X obj 791 17 cnv 15 15 15 empty empty AUDIO 18 8 0 14 -260097 -66577
0;
#X obj 472 374 mix8;
#X obj 532 493 audiotodac;
#N canvas 896 223 430 528 help 0;
#X obj 8 9 cnv 15 400 110 empty empty empty 20 12 0 14 -233017 -66577
0;
#X text 17 50 1) go to EDIT MODE: CMD+E (MAC) or CTRL+E (WIN);
#X text 16 73 2) CMD+1 (MAC) or CTRL+1 (WIN) to add an object;
#X text 16 27 ______________________;
#X text 16 97 3) type "name";
#X text 17 19 HOW TO ADD A MODULES;
#X obj 8 119 cnv 10 400 10 empty empty empty 20 12 0 14 -159808 -66577
0;
#X obj 9 238 clock;
#X obj 8 330 divider;
#X obj 8 136 cnv 15 15 15 empty empty BTN_-_Tempo 18 8 0 14 -159808
-66577 0;
#X obj 136 136 cnv 15 15 15 empty empty BTN_in_Poke 18 8 0 14 -4034
-66577 0;
#X obj 269 136 cnv 15 15 15 empty empty AUDIO 18 8 0 14 -260097 -66577
0;
#X obj 8 434 seq16;
#X text 7 308 divider;
#X text 5 413 seq16;
#X obj 8 182 dsp;
#X text 7 218 clock;
#X obj 9 594 kick;
#X obj 7 527 cnv 10 400 10 empty empty empty 20 12 0 14 -159808 -66577
0;
#X text 8 545 instruments;
#X text 7 573 kick;
#X obj 7 687 cnv 10 400 10 empty empty empty 20 12 0 14 -159808 -66577
0;
#X obj 9 731 sample;
#X obj 7 987 cnv 10 400 10 empty empty empty 20 12 0 14 -159808 -66577
0;
#X obj 9 1029 mix8;
#X obj 10 1167 audiotodac;
#X text 6 1145 audiotodac;
#X text 7 161 name: dsp;
#X text 6 706 sample;
#X text 7 1005 mix8;
#X restore 863 15 pd help;
#X text 14 16 OCTOPUS 2;
#X text 824 646 by lomz.net;
#X text 824 628 Octopus 2;
#X obj 705 269 seq16prob;
#X obj 699 486 kick;
#X obj 674 471 bng 15 250 50 0 empty empty empty 17 7 0 10 -262144
-1 -1;
#X obj 205 208 kick;
#X obj 360 201 kick;
#X obj 704 161 seq16;
#X obj 123 323 sample;
#X connect 0 0 4 0;
#X connect 0 0 12 0;
#X connect 4 1 15 0;
#X connect 4 1 17 0;
#X connect 4 2 16 0;
#X connect 4 2 18 0;
#X connect 6 0 7 0;
#X connect 6 1 7 1;
#X connect 12 0 13 0;
#X connect 13 0 6 0;
#X connect 14 0 13 0;
#X connect 15 0 6 1;
#X connect 16 0 6 2;
#X connect 17 0 18 1;
#X connect 18 0 6 3;
#X connect 18 1 6 3;
