#N canvas 214 25 1203 692 12;
#X obj 13 52 clock;
#X obj 13 14 dsp;
#X obj 13 162 seq16;
#X obj 91 15 cnv 15 15 15 empty empty Btn_in_-_Tempo 18 8 0 14 -159808
-66577 0;
#X obj 235 15 cnv 15 15 15 empty empty BTN_in_Poke 18 8 0 14 -4034
-66577 0;
#X obj 147 55 divider;
#X obj 32 270 kick;
#X obj 354 15 cnv 15 15 15 empty empty AUDIO 18 8 0 14 -260097 -66577
0;
#X obj 399 175 mtoggle;
#X obj 472 374 mix8;
#X obj 471 486 audiotodac;
#X obj 182 271 kick;
#X obj 303 56 seq16;
#X obj 360 261 kick;
#X obj 519 275 kick;
#X obj 175 415 sample;
#X obj 306 417 sample;
#X obj 624 56 seq16;
#X obj 36 414 sample;
#N canvas 896 223 430 528 help 1;
#X obj 8 9 cnv 15 400 110 empty empty empty 20 12 0 14 -233017 -66577
0;
#X text 17 50 1) go to EDIT MODE: CMD+E (MAC) or CTRL+E (WIN);
#X text 16 73 2) CMD+1 (MAC) or CTRL+1 (WIN) to add an object;
#X text 16 27 ______________________;
#X text 16 97 3) type "name";
#X text 17 19 HOW TO ADD A MODULES;
#X obj 8 119 cnv 10 400 10 empty empty empty 20 12 0 14 -159808 -66577
0;
#X obj 9 238 clock;
#X obj 8 330 divider;
#X obj 8 136 cnv 15 15 15 empty empty BTN_-_Tempo 18 8 0 14 -159808
-66577 0;
#X obj 136 136 cnv 15 15 15 empty empty BTN_in_Poke 18 8 0 14 -4034
-66577 0;
#X obj 269 136 cnv 15 15 15 empty empty AUDIO 18 8 0 14 -260097 -66577
0;
#X obj 8 434 seq16;
#X text 7 308 divider;
#X text 5 413 seq16;
#X obj 8 182 dsp;
#X text 7 218 clock;
#X obj 9 594 kick;
#X obj 7 527 cnv 10 400 10 empty empty empty 20 12 0 14 -159808 -66577
0;
#X text 8 545 instruments;
#X text 7 573 kick;
#X obj 7 687 cnv 10 400 10 empty empty empty 20 12 0 14 -159808 -66577
0;
#X text 6 706 samples;
#X obj 9 731 sample;
#X obj 7 987 cnv 10 400 10 empty empty empty 20 12 0 14 -159808 -66577
0;
#X text 7 1005 mixers;
#X obj 9 1029 mix8;
#X obj 10 1167 audiotodac;
#X text 6 1145 audiotodac;
#X text 7 161 name: dsp;
#X restore 451 16 pd help;
#X connect 0 0 5 0;
#X connect 0 0 2 0;
#X connect 0 0 8 0;
#X connect 0 0 17 0;
#X connect 2 0 6 0;
#X connect 2 0 15 1;
#X connect 5 0 12 0;
#X connect 5 1 11 0;
#X connect 5 2 8 1;
#X connect 5 2 2 1;
#X connect 5 2 12 1;
#X connect 5 3 17 1;
#X connect 5 3 16 1;
#X connect 5 3 18 1;
#X connect 6 0 9 0;
#X connect 8 0 14 0;
#X connect 9 0 10 0;
#X connect 9 1 10 1;
#X connect 11 0 9 2;
#X connect 12 0 13 0;
#X connect 12 0 8 1;
#X connect 12 0 15 0;
#X connect 13 0 9 1;
#X connect 15 0 9 3;
#X connect 15 1 9 4;
#X connect 16 0 9 5;
#X connect 16 1 9 6;
#X connect 17 0 16 0;
#X connect 17 0 18 0;
#X connect 18 0 9 7;
#X connect 18 1 9 7;
